<svg width="500" height="333" viewBox="0 0 500 333" fill="none" xmlns="http://www.w3.org/2000/svg">
<g filter="url(#filter0_d_4_3)">
<path d="M426.671 362.925C349.878 493.555 192.436 523.277 54.0872 488.134C-105.334 439.813 -170.538 270.69 -125.016 120.504C-82.7835 -18.8283 83.0818 19.3577 220.438 3.49611C474.794 -23.8102 573.649 131.918 426.671 362.925Z" fill="#C5BAFF"/>
<path d="M426.249 362.657L426.244 362.664L426.24 362.672C349.605 493.033 192.447 522.76 54.2207 487.652C-104.872 439.423 -169.996 270.627 -124.537 120.649C-114.01 85.9188 -95.7909 62.2771 -72.2542 46.0833C-48.7058 29.8813 -19.8038 21.1133 12.1159 16.1927C44.0365 11.272 78.9352 10.2042 114.464 9.37648C116.921 9.31923 119.381 9.26314 121.843 9.207C154.973 8.45153 188.505 7.68693 220.494 3.99302C347.598 -9.65173 435.639 22.4571 473.624 86.5979C511.614 150.746 499.703 247.208 426.249 362.657Z" stroke="black"/>
</g>
<defs>
<filter id="filter0_d_4_3" x="-143.199" y="0.394531" width="642.413" height="509.373" filterUnits="userSpaceOnUse" color-interpolation-filters="sRGB">
<feFlood flood-opacity="0" result="BackgroundImageFix"/>
<feColorMatrix in="SourceAlpha" type="matrix" values="0 0 0 0 0 0 0 0 0 0 0 0 0 0 0 0 0 0 127 0" result="hardAlpha"/>
<feOffset dy="4"/>
<feGaussianBlur stdDeviation="2"/>
<feComposite in2="hardAlpha" operator="out"/>
<feColorMatrix type="matrix" values="0 0 0 0 0 0 0 0 0 0 0 0 0 0 0 0 0 0 0.25 0"/>
<feBlend mode="normal" in2="BackgroundImageFix" result="effect1_dropShadow_4_3"/>
<feBlend mode="normal" in="SourceGraphic" in2="effect1_dropShadow_4_3" result="shape"/>
</filter>
</defs>
</svg>
