<svg width="18" height="18" fill="none" xmlns="http://www.w3.org/2000/svg"><path d="M17.855 7.334c.08 0 .145.065.145.145V9a9.002 9.002 0 0 1-9.063 9A8.979 8.979 0 0 1 0 8.98 9 9 0 0 1 15.26 2.532c.058.056.06.15.002.207L13.11 4.891a.144.144 0 0 1-.201.003A5.648 5.648 0 0 0 9 3.332a5.651 5.651 0 0 0-5.668 5.629 5.668 5.668 0 0 0 11.087 1.705H9.145A.145.145 0 0 1 9 10.521V7.48c0-.08.065-.145.145-.145h8.71Z" fill="#2196F3"/><path d="M17.855 7.334H16.77c.08 0 .145.065.145.145V9a9.004 9.004 0 0 1-8.457 8.984A9.002 9.002 0 0 0 18 9V7.479a.145.145 0 0 0-.146-.145Z" fill="#1E88E5"/><path d="M3.852 6.626 1.118 4.651A8.998 8.998 0 0 1 9 0c2.432 0 4.638.965 6.258 2.532.059.056.06.15.003.207l-2.152 2.152a.144.144 0 0 1-.202.003 5.668 5.668 0 0 0-9.056 1.732Z" fill="#F44336"/><path d="m3.063 6.056.789.57A5.671 5.671 0 0 1 8.41 3.363l.046-.005a5.651 5.651 0 0 0-5.393 2.698ZM14.172 2.532c.058.056.06.15.002.207l-1.746 1.747c.167.127.327.263.48.408a.144.144 0 0 0 .2-.003l2.153-2.152a.145.145 0 0 0-.003-.207A8.973 8.973 0 0 0 8.457.017a8.971 8.971 0 0 1 5.715 2.515Z" fill="#E53935"/><path d="M15.602 15.117A8.975 8.975 0 0 1 9 18a8.999 8.999 0 0 1-8.051-4.975l2.79-1.912a5.67 5.67 0 0 0 9.13 2.029l2.733 1.975Z" fill="#4CAF50"/><path d="m3.74 11.113-.824.564a5.667 5.667 0 0 0 5.54 2.965 5.673 5.673 0 0 1-4.717-3.529ZM9 18a8.975 8.975 0 0 0 6.602-2.883l-.67-.484a8.984 8.984 0 0 1-6.474 3.35c.18.011.36.017.542.017Z" fill="#43A047"/><path d="M3.332 9c0 .747.145 1.46.407 2.113L.95 13.025A8.959 8.959 0 0 1 0 9c0-1.577.406-3.06 1.118-4.349l2.734 1.975A5.645 5.645 0 0 0 3.332 9Z" fill="#FFC107"/><path d="m2.916 11.677.823-.564A5.651 5.651 0 0 1 3.332 9c0-.848.186-1.652.52-2.374l-.79-.57a5.66 5.66 0 0 0-.816 2.905 5.644 5.644 0 0 0 .67 2.716Z" fill="#FFB300"/></svg>